<?xml version="1.0" encoding="UTF-8" standalone="no"?>
<svg
   xmlns:dc="http://purl.org/dc/elements/1.1/"
   xmlns:cc="http://creativecommons.org/ns#"
   xmlns:rdf="http://www.w3.org/1999/02/22-rdf-syntax-ns#"
   xmlns:svg="http://www.w3.org/2000/svg"
   xmlns="http://www.w3.org/2000/svg"
   xmlns:sodipodi="http://sodipodi.sourceforge.net/DTD/sodipodi-0.dtd"
   xmlns:inkscape="http://www.inkscape.org/namespaces/inkscape"
   height="300px"
   width="300px"
   fill="#000000"
   version="1.1"
   x="0px"
   y="0px"
   viewBox="0 0 100 100"
   enable-background="new 0 0 100 100"
   xml:space="preserve"
   id="svg4491"
   sodipodi:docname="more-recent-favorites.svg"
   inkscape:version="0.92.1 r15371"><metadata
     id="metadata4497"><rdf:RDF><cc:Work
         rdf:about=""><dc:format>image/svg+xml</dc:format><dc:type
           rdf:resource="http://purl.org/dc/dcmitype/StillImage" /><dc:title></dc:title></cc:Work></rdf:RDF></metadata><defs
     id="defs4495"><filter
       inkscape:collect="always"
       style="color-interpolation-filters:sRGB"
       id="filter4521"
       x="-0.0408"
       width="1.0816"
       y="-0.0408"
       height="1.0816"><feGaussianBlur
         inkscape:collect="always"
         stdDeviation="1.156"
         id="feGaussianBlur4523" /></filter></defs><sodipodi:namedview
     pagecolor="#ffffff"
     bordercolor="#666666"
     borderopacity="1"
     objecttolerance="10"
     gridtolerance="10"
     guidetolerance="10"
     inkscape:pageopacity="0"
     inkscape:pageshadow="2"
     inkscape:window-width="1920"
     inkscape:window-height="1017"
     id="namedview4493"
     showgrid="false"
     inkscape:zoom="0.99937758"
     inkscape:cx="213.85227"
     inkscape:cy="133.72474"
     inkscape:window-x="-8"
     inkscape:window-y="-8"
     inkscape:window-maximized="1"
     inkscape:current-layer="svg4491" /><g
     style="fill:#868686;fill-opacity:1;stroke:none;stroke-width:0.62992126;stroke-miterlimit:4;stroke-dasharray:none;stroke-opacity:1;filter:url(#filter4521)"
     id="g4503"
     transform="translate(0.66666667,0.66666667)"><path
       style="fill:#868686;fill-opacity:1;stroke:none;stroke-width:0.62992126;stroke-miterlimit:4;stroke-dasharray:none;stroke-opacity:1"
       id="path4499"
       d="m 69.407,52.399 c 0.069,-0.069 0.132,-0.138 0.189,-0.206 0.031,-0.037 0.06,-0.076 0.09,-0.115 0.015,-0.02 0.028,-0.037 0.043,-0.057 0.42,-0.564 0.67,-1.262 0.671,-2.021 -0.001,-0.758 -0.251,-1.455 -0.67,-2.02 -0.018,-0.025 -0.037,-0.052 -0.057,-0.076 -0.025,-0.03 -0.048,-0.062 -0.075,-0.093 -0.059,-0.072 -0.122,-0.144 -0.194,-0.216 L 54.3,32.493 c -1.327,-1.327 -3.479,-1.327 -4.808,0 -1.329,1.327 -1.329,3.479 0,4.808 l 9.299,9.3 L 33,46.602 c -1.879,-10e-4 -3.4,1.522 -3.4,3.399 0,1.877 1.521,3.398 3.4,3.399 l 25.791,-10e-4 -9.299,9.299 c -1.328,1.329 -1.328,3.482 0,4.811 1.328,1.327 3.48,1.327 4.808,0 L 69.403,52.407 c 0,-0.003 0.003,-0.004 0.004,-0.008 z"
       inkscape:connector-curvature="0" /><path
       style="fill:#868686;fill-opacity:1;stroke:none;stroke-width:0.62992126;stroke-miterlimit:4;stroke-dasharray:none;stroke-opacity:1"
       id="path4501"
       d="M 16,50.001 C 16,68.777 31.223,84 50,84 68.777,84 83.999,68.777 84,50 84,31.223 68.777,16 50,16 31.223,16.001 16,31.223 16,50.001 Z m 61.2,0 c 0,15.021 -12.179,27.199 -27.2,27.2 -15.021,0 -27.2,-12.18 -27.2,-27.2 0,-15.022 12.179,-27.2 27.2,-27.2 15.021,-10e-4 27.2,12.178 27.2,27.2 z"
       inkscape:connector-curvature="0" /></g><g
     id="g4489"
     style="fill:#f8e4a2;fill-opacity:1;stroke:none;stroke-opacity:1;stroke-width:0.62992126;stroke-miterlimit:4;stroke-dasharray:none"><path
       d="M69.407,52.399c0.069-0.069,0.132-0.138,0.189-0.206c0.031-0.037,0.06-0.076,0.09-0.115   c0.015-0.02,0.028-0.037,0.043-0.057c0.42-0.564,0.67-1.262,0.671-2.021c-0.001-0.758-0.251-1.455-0.67-2.02   c-0.018-0.025-0.037-0.052-0.057-0.076c-0.025-0.03-0.048-0.062-0.075-0.093c-0.059-0.072-0.122-0.144-0.194-0.216L54.3,32.493   c-1.327-1.327-3.479-1.327-4.808,0s-1.329,3.479,0,4.808l9.299,9.3L33,46.602c-1.879-0.001-3.4,1.522-3.4,3.399   s1.521,3.398,3.4,3.399l25.791-0.001l-9.299,9.299c-1.328,1.329-1.328,3.482,0,4.811c1.328,1.327,3.48,1.327,4.808,0l15.103-15.102   C69.403,52.404,69.406,52.403,69.407,52.399z"
       id="path4485"
       style="fill:#f8e4a2;fill-opacity:1;stroke:none;stroke-opacity:1;stroke-width:0.62992126;stroke-miterlimit:4;stroke-dasharray:none" /><path
       d="M16,50.001C16,68.777,31.223,84,50,84s33.999-15.223,34-34c0-18.777-15.223-34-34-34C31.223,16.001,16,31.223,16,50.001z    M77.2,50.001c0,15.021-12.179,27.199-27.2,27.2c-15.021,0-27.2-12.18-27.2-27.2c0-15.022,12.179-27.2,27.2-27.2   C65.021,22.8,77.2,34.979,77.2,50.001z"
       id="path4487"
       style="fill:#f8e4a2;fill-opacity:1;stroke:none;stroke-opacity:1;stroke-width:0.62992126;stroke-miterlimit:4;stroke-dasharray:none" /></g></svg>