<?xml version="1.0" encoding="UTF-8" standalone="no"?>
<svg
   xmlns:svg="http://www.w3.org/2000/svg"
   xmlns="http://www.w3.org/2000/svg"
   viewBox="0 0 24 24"
   version="1.1"
   id="svg4">
  <path
     d="m 16.720773,1.9921875 1.414062,1.4140625 -2.783203,2.7832031 5.777344,5.5976559 0.0059,0.0059 c 1.153553,1.153553 1.153553,3.06129 0,4.214843 l -5.099609,5.09961 c -1.153554,1.153553 -3.011174,1.203669 -4.115234,0.09961 L 6.8203817,16.107422 c -1.1535529,-1.153554 -1.1535529,-3.06129 0,-4.214844 l 2,-1.9999999 z m -2.78125,5.6113281 -3.705078,3.7031254 -2.0000003,2 C 8.0112208,13.529864 7.9004597,13.764932 7.9004597,14 H 20.031319 c 0.03612,-0.268112 -0.05569,-0.538108 -0.310546,-0.792969 z M 4.9278037,16 c 0,0 2,2.9 2,4 0,1.1 -0.8999999,2 -2,2 -1.1,0 -2,-0.9 -2,-2 0,-1.1 2,-4 2,-4 z"
     id="path2"/>
</svg>
