<?xml version="1.0" encoding="UTF-8" standalone="no"?>
<!-- Generator: Adobe Illustrator 18.0.0, SVG Export Plug-In . SVG Version: 6.00 Build 0)  -->

<svg
   xmlns:dc="http://purl.org/dc/elements/1.1/"
   xmlns:cc="http://creativecommons.org/ns#"
   xmlns:rdf="http://www.w3.org/1999/02/22-rdf-syntax-ns#"
   xmlns:svg="http://www.w3.org/2000/svg"
   xmlns="http://www.w3.org/2000/svg"
   xmlns:sodipodi="http://sodipodi.sourceforge.net/DTD/sodipodi-0.dtd"
   xmlns:inkscape="http://www.inkscape.org/namespaces/inkscape"
   version="1.1"
   id="Capa_1"
   x="0px"
   y="0px"
   viewBox="0 0 149.99999 149.99999"
   xml:space="preserve"
   sodipodi:docname="self-block.svg"
   width="150"
   height="150"
   inkscape:version="0.92.4 (5da689c313, 2019-01-14)"><metadata
   id="metadata43"><rdf:RDF><cc:Work
       rdf:about=""><dc:format>image/svg+xml</dc:format><dc:type
         rdf:resource="http://purl.org/dc/dcmitype/StillImage" /><dc:title></dc:title></cc:Work></rdf:RDF></metadata><defs
   id="defs41">
	
	
</defs><sodipodi:namedview
   pagecolor="#ffffff"
   bordercolor="#666666"
   borderopacity="1"
   objecttolerance="10"
   gridtolerance="10"
   guidetolerance="10"
   inkscape:pageopacity="0"
   inkscape:pageshadow="2"
   inkscape:window-width="1920"
   inkscape:window-height="1001"
   id="namedview39"
   showgrid="false"
   inkscape:zoom="1.6567565"
   inkscape:cx="71.223503"
   inkscape:cy="71.223503"
   inkscape:window-x="-9"
   inkscape:window-y="-9"
   inkscape:window-maximized="1"
   inkscape:current-layer="Capa_1" />
<path
   inkscape:connector-curvature="0"
   id="path2"
   d="m 76.958042,12.381706 c -35.112724,0 -63.679084,28.56636 -63.679084,63.678192 0,35.111832 28.56636,63.679082 63.679084,63.679082 35.112728,0 63.679088,-28.56636 63.679088,-63.679082 0,-35.112726 -28.56726,-63.678192 -63.679088,-63.678192 z m 0,113.946264 c -27.717889,0 -50.268067,-22.55018 -50.268067,-50.268072 0,-27.716997 22.550178,-50.267175 50.268067,-50.267175 27.717888,0 50.268068,22.550178 50.268068,50.267175 -8.9e-4,27.717892 -22.55018,50.268072 -50.268068,50.268072 z"
   style="fill:#c11111;fill-opacity:1;stroke-width:0.89406776" /><path
   inkscape:connector-curvature="0"
   id="path4"
   d="m 108.23432,44.784511 c -2.61961,-2.617831 -6.86465,-2.617831 -9.483372,0 L 76.766712,66.767848 55.102555,45.102799 c -2.618724,-2.617831 -6.863758,-2.617831 -9.483377,0 -2.618724,2.619619 -2.618724,6.864649 0,9.483379 l 21.664157,21.66416 -21.345869,21.34586 c -2.618724,2.619622 -2.618724,6.864662 0,9.483382 1.30981,1.30892 3.025526,1.96337 4.742136,1.96337 1.715716,0 3.432326,-0.65445 4.742135,-1.96337 L 76.766712,85.734608 98.430868,107.39876 c 1.30981,1.30892 3.025532,1.96338 4.742142,1.96338 1.71571,0 3.43232,-0.65446 4.74213,-1.96338 2.61873,-2.61962 2.61873,-6.86465 0,-9.483372 L 86.250978,76.251228 108.23432,54.267888 c 2.61873,-2.61962 2.61873,-6.864653 0,-9.483377 z"
   style="fill:#1d1d1b;stroke-width:0.89406776" />
<g
   id="g8"
   transform="translate(0,7.552994)">
</g>
<g
   id="g10"
   transform="translate(0,7.552994)">
</g>
<g
   id="g12"
   transform="translate(0,7.552994)">
</g>
<g
   id="g14"
   transform="translate(0,7.552994)">
</g>
<g
   id="g16"
   transform="translate(0,7.552994)">
</g>
<g
   id="g18"
   transform="translate(0,7.552994)">
</g>
<g
   id="g20"
   transform="translate(0,7.552994)">
</g>
<g
   id="g22"
   transform="translate(0,7.552994)">
</g>
<g
   id="g24"
   transform="translate(0,7.552994)">
</g>
<g
   id="g26"
   transform="translate(0,7.552994)">
</g>
<g
   id="g28"
   transform="translate(0,7.552994)">
</g>
<g
   id="g30"
   transform="translate(0,7.552994)">
</g>
<g
   id="g32"
   transform="translate(0,7.552994)">
</g>
<g
   id="g34"
   transform="translate(0,7.552994)">
</g>
<g
   id="g36"
   transform="translate(0,7.552994)">
</g>
</svg>