<?xml version="1.0" encoding="UTF-8" standalone="no"?>
<!-- Created with Inkscape (http://www.inkscape.org/) -->

<svg
   xmlns:dc="http://purl.org/dc/elements/1.1/"
   xmlns:cc="http://creativecommons.org/ns#"
   xmlns:rdf="http://www.w3.org/1999/02/22-rdf-syntax-ns#"
   xmlns:svg="http://www.w3.org/2000/svg"
   xmlns="http://www.w3.org/2000/svg"
   xmlns:sodipodi="http://sodipodi.sourceforge.net/DTD/sodipodi-0.dtd"
   xmlns:inkscape="http://www.inkscape.org/namespaces/inkscape"
   width="744.09448819"
   height="1052.3622047"
   id="svg2"
   version="1.1"
   inkscape:version="0.48.1 "
   sodipodi:docname="Новый документ 1">
  <defs
     id="defs4" />
  <sodipodi:namedview
     id="base"
     pagecolor="#ffffff"
     bordercolor="#666666"
     borderopacity="1.0"
     inkscape:pageopacity="0.0"
     inkscape:pageshadow="2"
     inkscape:zoom="1"
     inkscape:cx="330.36369"
     inkscape:cy="736.21849"
     inkscape:document-units="px"
     inkscape:current-layer="layer1"
     showgrid="true"
     inkscape:window-width="1920"
     inkscape:window-height="1003"
     inkscape:window-x="-9"
     inkscape:window-y="-9"
     inkscape:window-maximized="1">
    <inkscape:grid
       type="axonomgrid"
       id="grid2985"
       units="mm"
       empspacing="5"
       visible="true"
       enabled="false"
       snapvisiblegridlinesonly="true" />
  </sodipodi:namedview>
  <metadata
     id="metadata7">
    <rdf:RDF>
      <cc:Work
         rdf:about="">
        <dc:format>image/svg+xml</dc:format>
        <dc:type
           rdf:resource="http://purl.org/dc/dcmitype/StillImage" />
        <dc:title></dc:title>
      </cc:Work>
    </rdf:RDF>
  </metadata>
  <g
     inkscape:label="Layer 1"
     inkscape:groupmode="layer"
     id="layer1">
    <path
       style="fill:#4572f7;fill-opacity:1;stroke:none"
       d="m 46.028909,139.96062 0,-106.299225 92.057821,53.14961 -92.057821,53.149615"
       id="path2998"
       inkscape:connector-curvature="0" />
    <path
       style="fill:#ffe942;fill-opacity:1;stroke:none"
       d="m 46.028909,139.96062 92.057821,53.1496 0,-106.299215 z"
       id="path3000"
       inkscape:connector-curvature="0" />
    <path
       style="fill:#ff696e;fill-opacity:1;stroke:none"
       d="m 46.028909,139.96062 92.057821,53.1496 c 0,0 -92.057821,53.14961 -92.057821,53.14961 z"
       id="path3002"
       inkscape:connector-curvature="0" />
    <path
       style="fill:#3db839;fill-opacity:1;stroke:none"
       d="m 138.08673,86.811005 92.05782,53.149615 -92.05782,53.1496 0,-106.299215"
       id="path3004"
       inkscape:connector-curvature="0" />
    <path
       style="fill:#4572f7;fill-opacity:1;stroke:none"
       d="m 414.26018,139.96062 c -21.68977,-34.40023 -18.24805,-69.997195 0,-106.299225 41.10661,3.50653 71.90347,21.07181 92.05782,53.14961 -41.7252,2.66301 -71.27214,21.932725 -92.05782,53.149615"
       id="path2998-1"
       inkscape:connector-curvature="0"
       sodipodi:nodetypes="cccc" />
    <path
       style="fill:#ffe942;fill-opacity:1;stroke:none"
       d="m 414.26018,139.96062 c 23.1985,36.96994 55.5714,50.34858 92.05782,53.1496 15.82164,-34.50239 16.55589,-69.89226 0,-106.299215 -40.35394,2.24774 -70.7506,20.427125 -92.05782,53.149615 z"
       id="path3000-7"
       inkscape:connector-curvature="0"
       sodipodi:nodetypes="cccc" />
    <path
       style="fill:#ff696e;fill-opacity:1;stroke:none"
       d="m 414.26018,139.96062 c 22.71139,35.65928 54.11535,51.76026 92.05782,53.1496 -16.57816,34.64587 -46.90913,52.78837 -92.05782,53.14961 -19.13899,-34.47612 -18.95607,-69.91834 0,-106.29921 z"
       id="path3002-4"
       inkscape:connector-curvature="0"
       sodipodi:nodetypes="cccc" />
    <path
       style="fill:#3db839;fill-opacity:1;stroke:none"
       d="m 506.318,86.811005 c 38.99995,1.08852 70.19758,17.781675 92.05782,53.149615 -18.01922,35.25507 -49.27943,52.17646 -92.05782,53.1496 17.54815,-35.43307 16.73359,-70.86614 0,-106.299215"
       id="path3004-0"
       inkscape:connector-curvature="0"
       sodipodi:nodetypes="cccc" />
    <path
       style="fill:#4572f7;fill-opacity:1;stroke:none"
       d="M 46.028909,416.33856 61.371879,308.26769 162.63548,349.01572 46.028909,416.33856"
       id="path2998-3"
       inkscape:connector-curvature="0"
       sodipodi:nodetypes="cccc" />
    <path
       style="fill:#ffe942;fill-opacity:1;stroke:none"
       d="m 46.028909,416.33856 116.606571,63.77953 0,-131.10237 z"
       id="path3000-3"
       inkscape:connector-curvature="0"
       sodipodi:nodetypes="cccc" />
    <path
       style="fill:#ff696e;fill-opacity:1;stroke:none"
       d="M 46.028909,416.33856 162.63548,480.11809 61.371879,520.86612 z"
       id="path3002-7"
       inkscape:connector-curvature="0"
       sodipodi:nodetypes="cccc" />
    <path
       style="fill:#3db839;fill-opacity:1;stroke:none"
       d="m 162.63548,349.01572 82.85204,65.55119 -82.85204,65.55118 0,-131.10237"
       id="path3004-8"
       inkscape:connector-curvature="0"
       sodipodi:nodetypes="cccc" />
    <path
       style="fill:#4572f7;fill-opacity:1;stroke:none"
       d="m 383.57424,398.62203 15.34297,-108.07087 101.2636,40.74803 -116.60657,67.32284"
       id="path2998-3-8"
       inkscape:connector-curvature="0"
       sodipodi:nodetypes="cccc" />
    <path
       style="fill:#ff696e;fill-opacity:1;stroke:none"
       d="m 383.57424,398.62203 57.01005,31.18241 59.59652,32.59712 -101.2636,40.74803 z"
       id="path3002-7-6"
       inkscape:connector-curvature="0"
       sodipodi:nodetypes="ccccc" />
    <path
       style="fill:#3db839;fill-opacity:1;stroke:none"
       d="m 500.18081,331.29919 82.85204,65.55119 -82.85204,65.55118 0,-131.10237"
       id="path3004-8-7"
       inkscape:connector-curvature="0"
       sodipodi:nodetypes="cccc" />
    <path
       style="fill:#ffe942;fill-opacity:1;stroke:none"
       d="m 383.57424,398.62203 52.1661,40.74803 64.44047,23.0315 9.20579,-65.55118 -9.20579,-65.55119 -64.44047,23.0315 z"
       id="path3000-3-7"
       inkscape:connector-curvature="0"
       sodipodi:nodetypes="ccccccc" />
    <path
       style="fill:#4572f7;fill-opacity:1;stroke:none"
       d="m 76.714849,706.88974 -12.27437,-53.1496 12.27437,-53.14961 52.166101,15.94488 39.89172,37.20473 -52.1661,15.94488 -39.891721,37.20472"
       id="path2998-32"
       inkscape:connector-curvature="0"
       sodipodi:nodetypes="ccccccc" />
    <path
       style="fill:#ffe942;fill-opacity:1;stroke:none"
       d="m 76.714849,706.88974 39.891721,37.20472 52.1661,15.94488 12.27438,-53.1496 -12.27438,-53.1496 -52.1661,15.94488 z"
       id="path3000-1"
       inkscape:connector-curvature="0"
       sodipodi:nodetypes="ccccccc" />
    <path
       style="fill:#ff696e;fill-opacity:1;stroke:none"
       d="m 76.714849,706.88974 39.891721,37.20472 52.1661,15.94488 -39.89172,37.20473 -52.166101,15.94488 -12.27437,-53.1496 z"
       id="path3002-73"
       inkscape:connector-curvature="0"
       sodipodi:nodetypes="ccccccc" />
    <path
       style="fill:#3db839;fill-opacity:1;stroke:none"
       d="m 168.77267,653.74014 52.1661,15.94488 39.8917,37.20472 -39.8917,37.20472 -52.1661,15.94488 12.27438,-53.1496 -12.27438,-53.1496"
       id="path3004-6"
       inkscape:connector-curvature="0"
       sodipodi:nodetypes="ccccccc" />
    <path
       style="fill:#4572f7;fill-opacity:1;stroke:none"
       d="m 414.26018,689.1732 -15.34297,-62.00787 15.34297,-44.29134 46.02891,8.85827 46.02891,44.29134 -46.02891,8.85827 -15.34297,8.85827 -30.68594,35.43306"
       id="path2998-32-3"
       inkscape:connector-curvature="0"
       sodipodi:nodetypes="cccccccc" />
    <path
       style="fill:#ffe942;fill-opacity:1;stroke:none"
       d="m 414.26018,689.1732 30.68594,35.43308 15.34297,8.85826 46.02891,8.85826 15.34297,-44.29133 0,-17.71653 -15.34297,-44.29134 -46.02891,8.85827 -15.34297,8.85827 z"
       id="path3000-1-8"
       inkscape:connector-curvature="0"
       sodipodi:nodetypes="cccccccccc" />
    <path
       style="fill:#ff696e;fill-opacity:1;stroke:none"
       d="m 414.26018,689.1732 30.68594,35.43308 15.34297,8.85826 46.02891,8.85826 -46.02891,44.29135 -46.02891,8.85826 -15.34297,-44.29133 z"
       id="path3002-73-7"
       inkscape:connector-curvature="0"
       sodipodi:nodetypes="cccccccc" />
    <path
       style="fill:#3db839;fill-opacity:1;stroke:none"
       d="m 506.318,636.0236 61.37188,17.71654 30.68592,35.43306 -30.68592,35.43308 -61.37188,17.71652 15.34297,-44.29133 0,-17.71653 L 506.318,636.0236"
       id="path3004-6-3"
       inkscape:connector-curvature="0"
       sodipodi:nodetypes="cccccccc" />
    <path
       style="fill:#4572f7;fill-opacity:1;stroke:none"
       d="m 245.48752,928.34643 -15.34297,-62.00787 21.48015,-33.66142 39.89173,-1.77165 46.02891,44.29134 -46.02891,8.85827 -15.34297,8.85827 -30.68594,35.43306"
       id="path2998-32-3-0"
       inkscape:connector-curvature="0"
       sodipodi:nodetypes="cccccccc" />
    <path
       style="fill:#ffe942;fill-opacity:1;stroke:none"
       d="m 245.48752,928.34643 30.68594,35.43308 15.34297,8.85826 46.02891,8.85826 15.34297,-44.29133 0,-17.71653 -15.34297,-44.29134 -46.02891,8.85827 -15.34297,8.85827 z"
       id="path3000-1-8-9"
       inkscape:connector-curvature="0"
       sodipodi:nodetypes="cccccccccc" />
    <path
       style="fill:#ff696e;fill-opacity:1;stroke:none"
       d="m 245.48752,928.34643 30.68594,35.43308 15.34297,8.85826 46.02891,8.85826 -46.02891,44.29137 -39.89173,-1.7717 -21.48015,-33.66139 z"
       id="path3002-73-7-3"
       inkscape:connector-curvature="0"
       sodipodi:nodetypes="cccccccc" />
    <path
       style="fill:#3db839;fill-opacity:1;stroke:none"
       d="m 337.54534,875.19683 61.37188,17.71654 18.41156,35.43306 -18.41156,35.43308 -61.37188,17.71652 15.34297,-44.29133 0,-17.71653 -15.34297,-44.29134"
       id="path3004-6-3-5"
       inkscape:connector-curvature="0"
       sodipodi:nodetypes="cccccccc" />
  </g>
</svg>
